<!DOCTYPE svg PUBLIC "-//W3C//DTD SVG 1.1//EN" "http://www.w3.org/Graphics/SVG/1.1/DTD/svg11.dtd">
<!-- Uploaded to: SVG Repo, www.svgrepo.com, Transformed by: SVG Repo Mixer Tools -->
<svg fill="#1c2638" version="1.1" id="Layer_1" xmlns="http://www.w3.org/2000/svg" xmlns:xlink="http://www.w3.org/1999/xlink" width="800px" height="800px" viewBox="0 0 30 26" xml:space="preserve">
<g id="SVGRepo_bgCarrier" stroke-width="0"/>
<g id="SVGRepo_tracerCarrier" stroke-linecap="round" stroke-linejoin="round"/>
<g id="SVGRepo_iconCarrier"> <g id="message"> <path d="M28.738,25.208L28.738,25.208c-1.73-0.311-3.77-1.471-4.743-3.621C27.635,19.396,30,15.923,30,12c0-6.627-6.716-12-15-12 S0,5.373,0,12s6.716,12,15,12c1.111,0,2.191-0.104,3.232-0.287c2.86,1.975,6.252,2.609,10.41,2.139 c0.248-0.02,0.356-0.148,0.356-0.326C29,25.367,28.887,25.238,28.738,25.208z M9,14c-1.104,0-2-0.895-2-2c0-1.104,0.896-2,2-2 s2,0.896,2,2C11,13.105,10.104,14,9,14z M15,14c-1.104,0-2-0.895-2-2c0-1.104,0.896-2,2-2s2,0.896,2,2C17,13.105,16.104,14,15,14z M21,14c-1.104,0-2-0.895-2-2c0-1.104,0.896-2,2-2s2,0.896,2,2C23,13.105,22.104,14,21,14z"/> </g> <g id="Layer_1_1_"> </g> </g>
</svg>